<svg version="1.1" id="Layer_1" xmlns="http://www.w3.org/2000/svg" xmlns:xlink="http://www.w3.org/1999/xlink" x="0px" y="0px"
	 width="100%" viewBox="0 0 358 106" enable-background="new 0 0 358 106" xml:space="preserve">
<path fill="#060919" opacity="1.000000" stroke="none" 
	d="
M331.000000,107.000000 
	C220.666687,107.000000 110.833359,107.000000 1.000030,107.000000 
	C1.000020,71.666687 1.000020,36.333366 1.000010,1.000039 
	C120.333305,1.000026 239.666611,1.000026 358.999939,1.000013 
	C358.999939,36.333298 358.999939,71.666595 358.999969,106.999947 
	C349.833344,107.000000 340.666656,107.000000 331.000000,107.000000 
M159.738205,68.787102 
	C163.460861,72.193008 167.540314,72.897202 172.115921,70.559067 
	C172.766678,70.226532 173.706497,70.259186 174.469650,70.384323 
	C176.859436,70.776184 179.228714,71.293182 181.665466,71.773430 
	C181.665466,60.974136 181.665466,51.200649 181.665466,41.325493 
	C179.164703,41.325493 176.943283,41.325493 174.221527,41.325493 
	C174.221527,44.479080 174.221527,47.348049 174.221527,50.392815 
	C165.720871,46.937401 159.846024,48.560356 157.519516,54.974148 
	C155.853851,59.566082 156.155411,64.137634 159.738205,68.787102 
M53.013023,44.514755 
	C45.861744,48.374786 38.677681,52.176285 31.588367,56.146950 
	C30.258253,56.891941 29.306791,58.312984 28.180592,59.422054 
	C29.573610,60.386482 30.858273,61.926880 32.378910,62.212955 
	C38.138100,63.296436 41.978985,65.933228 42.795925,72.193634 
	C42.972286,73.545128 44.503826,74.719780 45.411144,75.975883 
	C46.513550,74.892014 48.002510,74.000801 48.654594,72.692490 
	C52.425900,65.125870 56.149441,57.526718 59.553635,49.790932 
	C60.642750,47.315987 60.709354,44.391071 61.243793,41.672031 
	C58.713715,42.492157 56.183640,43.312283 53.013023,44.514755 
M256.251312,67.497444 
	C256.236115,65.830856 256.220001,64.164284 256.205872,62.497688 
	C256.130493,53.604248 256.658722,53.149445 265.431641,54.477062 
	C265.890930,58.745464 265.571320,63.279293 266.998413,67.172897 
	C268.858643,72.248093 273.676636,71.392540 277.949768,70.854858 
	C277.949768,68.840912 277.949768,67.198906 277.949768,65.589508 
	C272.606964,64.364639 272.496185,64.080177 273.517639,54.145435 
	C274.868835,54.043228 276.276520,53.936749 277.684082,53.830280 
	C277.684082,51.746788 277.684082,50.015930 277.684082,48.320446 
	C275.981140,48.090107 274.569885,47.899220 273.233124,47.718410 
	C273.053314,45.799484 272.903992,44.205647 272.752716,42.591164 
	C270.305511,42.591164 268.231720,42.591164 266.098541,42.591164 
	C265.947327,44.497120 265.819672,46.106060 265.645508,48.301247 
	C262.240753,48.301247 259.093628,48.114006 255.978378,48.349026 
	C252.155182,48.637455 249.114899,50.271458 248.992523,54.644211 
	C248.840103,60.090782 248.955948,65.544861 248.955948,71.794380 
	C251.687103,69.944618 255.756790,74.000862 256.251312,67.497444 
M76.193924,70.150795 
	C78.465477,70.616768 80.737030,71.082741 83.609673,71.672012 
	C83.609673,67.193581 83.586044,63.572258 83.616951,59.951405 
	C83.643021,56.896980 84.244133,54.109810 88.082863,54.060764 
	C91.879326,54.012257 92.697838,56.733219 92.766953,59.801495 
	C92.851181,63.541435 92.786980,67.284721 92.786980,70.812325 
	C95.638695,70.812325 97.719597,70.812325 99.993744,70.812325 
	C99.993744,66.045830 100.176331,61.569141 99.952301,57.112892 
	C99.587402,49.854412 93.819450,46.279331 86.971291,48.872845 
	C85.972305,49.251175 84.987541,49.667023 83.316391,50.338776 
	C83.316391,46.884098 83.316391,43.998966 83.316391,41.139389 
	C80.651154,41.139389 78.550224,41.139389 76.139915,41.139389 
	C76.139915,50.643246 76.139915,59.922703 76.193924,70.150795 
M137.818924,48.880840 
	C130.287048,50.881298 126.805855,57.626858 129.441788,65.113289 
	C131.672180,71.447922 137.324310,73.542572 144.490051,70.726578 
	C145.155609,70.465027 145.982544,70.170959 146.612534,70.341850 
	C148.861984,70.952057 151.058762,71.756332 153.765717,72.648811 
	C153.765717,64.162964 153.765717,56.745453 153.765717,49.108612 
	C148.629028,48.348949 143.557816,50.898907 137.818924,48.880840 
M221.164215,56.212185 
	C220.109573,68.814644 225.703003,73.519753 237.119385,69.655228 
	C237.635223,69.480606 238.278168,69.379601 238.782089,69.523605 
	C241.011536,70.160713 243.211777,70.900024 246.053146,71.802650 
	C246.053146,66.960510 246.053146,63.184879 246.053146,59.409245 
	C246.053146,55.657719 246.053146,51.906193 246.053146,48.169285 
	C243.524261,48.169285 241.689957,48.042595 239.883728,48.213139 
	C238.647827,48.329834 237.235474,49.458500 236.271240,49.110790 
	C229.221466,46.568630 224.786560,48.362114 221.164215,56.212185 
M123.995300,68.535500 
	C124.594803,67.456566 125.194313,66.377632 126.599380,63.848911 
	C122.334587,64.876526 119.382683,65.358376 116.594963,66.317459 
	C113.094803,67.521652 111.181282,66.510742 109.752922,62.540577 
	C113.197327,62.540577 115.843979,62.540573 118.490623,62.540573 
	C121.077187,62.540573 123.663750,62.540577 126.379044,62.540577 
	C126.751015,56.914871 125.365204,52.864670 120.842545,50.539425 
	C116.201309,48.153225 111.447578,48.377289 107.132927,51.331833 
	C102.950500,54.195831 102.070290,58.530804 102.818115,63.271267 
	C104.285225,72.571274 115.080551,75.581741 123.995300,68.535500 
M296.533264,61.095798 
	C299.152649,61.095798 301.772034,61.095798 304.356140,61.095798 
	C304.772400,53.023678 301.206543,48.472710 294.449615,47.876675 
	C287.092834,47.227726 281.757324,50.902206 280.880188,57.221703 
	C279.890808,64.350121 283.530151,69.912605 289.895142,71.000343 
	C296.944122,72.204948 302.271973,69.161766 303.617065,62.337421 
	C300.323639,63.287899 297.417786,64.061432 294.554657,64.969543 
	C291.102142,66.064590 289.103729,64.972076 287.926239,61.102253 
	C290.958862,61.102253 293.278839,61.102253 296.533264,61.095798 
M201.147797,55.510674 
	C201.517838,54.370312 202.549118,52.856705 202.150375,52.150307 
	C199.608566,47.647366 195.198441,47.444832 190.779678,48.053684 
	C187.094147,48.561512 183.984070,50.244358 183.713181,54.509010 
	C183.453217,58.601669 186.143433,60.316978 189.694443,61.262840 
	C192.058395,61.892509 194.348923,62.797825 196.672333,63.579769 
	C196.513351,64.275696 196.354355,64.971619 196.195374,65.667549 
	C191.890854,64.889595 187.586319,64.111649 182.569733,63.205006 
	C185.411072,69.866524 188.763412,71.724701 195.371338,71.156715 
	C199.294113,70.819519 202.819550,69.518387 203.365921,65.110413 
	C203.924698,60.602291 200.830643,58.713425 196.902390,57.705391 
	C194.701447,57.140606 192.591217,56.222309 190.440125,55.463295 
	C190.584229,54.799976 190.728333,54.136654 190.872437,53.473331 
	C192.408386,53.634315 193.974152,53.660625 195.472305,53.992294 
	C197.134033,54.360176 198.733994,55.006908 201.147797,55.510674 
M213.121674,43.061806 
	C211.188293,43.061806 209.254898,43.061806 207.321518,43.061806 
	C207.570404,43.430630 207.819290,43.799450 208.068176,44.168274 
	C206.866806,45.915386 205.333496,47.531765 204.576462,49.453884 
	C204.038818,50.818954 204.102768,53.791599 204.661316,53.999828 
	C208.932007,55.591995 206.953232,59.048676 207.066071,61.607407 
	C207.439713,70.080475 210.503983,72.634224 219.381134,71.076469 
	C219.381134,69.523575 219.381134,67.924805 219.381134,66.122437 
	C218.002228,65.726250 216.614441,65.327515 214.979675,64.857819 
	C214.979675,61.542747 214.979675,58.281086 214.979675,55.031574 
	C216.478928,54.660767 217.842331,54.323563 219.182632,53.992073 
	C219.182632,52.196785 219.182632,50.722687 219.182632,49.031864 
	C217.696381,48.784901 216.303543,48.553459 214.982391,48.333931 
	C214.608429,46.487720 214.286255,44.897182 213.121674,43.061806 
M315.007996,68.215561 
	C315.001587,66.550613 314.993164,64.885681 314.989105,63.220726 
	C314.971558,55.997978 315.097473,55.839832 321.895752,54.428413 
	C321.895752,52.216202 321.895752,50.039387 321.895752,47.101936 
	C319.218811,48.370167 317.191223,49.330750 315.258636,50.246330 
	C313.761108,45.751579 310.428406,48.531235 308.057617,48.199390 
	C308.057617,55.960518 308.057617,63.341347 308.057617,71.796593 
	C310.877930,70.716583 312.937531,69.927872 315.007996,68.215561 
M57.141644,60.793232 
	C57.707100,64.311554 62.126595,66.854126 67.535339,66.395073 
	C65.448105,62.322742 63.462280,58.448269 60.862064,53.375069 
	C59.336945,56.430656 58.420216,58.267334 57.141644,60.793232 
M38.838417,44.630230 
	C41.319164,48.598801 42.821281,48.413078 49.298130,42.841858 
	C44.848820,40.818871 40.756992,38.958424 36.665169,37.097973 
	C36.348225,37.532669 36.031284,37.967365 35.714340,38.402061 
	C36.632980,40.267906 37.551617,42.133751 38.838417,44.630230 
z"/>
<path fill="#F3F3F4" opacity="1.000000" stroke="none" 
	d="
M159.481750,68.511368 
	C156.155411,64.137634 155.853851,59.566082 157.519516,54.974148 
	C159.846024,48.560356 165.720871,46.937401 174.221527,50.392815 
	C174.221527,47.348049 174.221527,44.479080 174.221527,41.325493 
	C176.943283,41.325493 179.164703,41.325493 181.665466,41.325493 
	C181.665466,51.200649 181.665466,60.974136 181.665466,71.773430 
	C179.228714,71.293182 176.859436,70.776184 174.469650,70.384323 
	C173.706497,70.259186 172.766678,70.226532 172.115921,70.559067 
	C167.540314,72.897202 163.460861,72.193008 159.481750,68.511368 
M174.304245,59.509502 
	C173.838257,55.962528 171.730621,53.755215 168.332352,54.900036 
	C166.542114,55.503132 164.234528,58.348179 164.385773,59.973896 
	C164.571960,61.975304 166.767105,64.871132 168.648239,65.396744 
	C172.023331,66.339767 174.016739,63.858753 174.304245,59.509502 
z"/>
<path fill="#65DBB1" opacity="1.000000" stroke="none" 
	d="
M53.333294,44.323578 
	C56.183640,43.312283 58.713715,42.492157 61.243793,41.672035 
	C60.709354,44.391071 60.642750,47.315987 59.553635,49.790932 
	C56.149441,57.526718 52.425900,65.125870 48.654594,72.692490 
	C48.002510,74.000801 46.513550,74.892014 45.411140,75.975883 
	C44.503826,74.719780 42.972286,73.545128 42.795925,72.193634 
	C41.978985,65.933228 38.138100,63.296436 32.378910,62.212955 
	C30.858273,61.926880 29.573610,60.386482 28.180592,59.422054 
	C29.306791,58.312984 30.258253,56.891941 31.588367,56.146950 
	C38.677681,52.176285 45.861744,48.374786 53.333294,44.323578 
z"/>
<path fill="#F9F9FA" opacity="1.000000" stroke="none" 
	d="
M256.254974,67.986282 
	C255.756790,74.000862 251.687103,69.944618 248.955948,71.794380 
	C248.955948,65.544861 248.840103,60.090782 248.992523,54.644211 
	C249.114899,50.271458 252.155182,48.637455 255.978378,48.349026 
	C259.093628,48.114006 262.240753,48.301247 265.645508,48.301247 
	C265.819672,46.106060 265.947327,44.497120 266.098541,42.591164 
	C268.231720,42.591164 270.305511,42.591164 272.752716,42.591164 
	C272.903992,44.205647 273.053314,45.799484 273.233124,47.718410 
	C274.569885,47.899220 275.981140,48.090107 277.684082,48.320446 
	C277.684082,50.015930 277.684082,51.746788 277.684082,53.830280 
	C276.276520,53.936749 274.868835,54.043228 273.517639,54.145435 
	C272.496185,64.080177 272.606964,64.364639 277.949768,65.589508 
	C277.949768,67.198906 277.949768,68.840912 277.949768,70.854858 
	C273.676636,71.392540 268.858643,72.248093 266.998413,67.172897 
	C265.571320,63.279293 265.890930,58.745464 265.431641,54.477062 
	C256.658722,53.149445 256.130493,53.604248 256.205872,62.497688 
	C256.220001,64.164284 256.236115,65.830856 256.254974,67.986282 
z"/>
<path fill="#F6F6F6" opacity="1.000000" stroke="none" 
	d="
M76.166916,69.676483 
	C76.139915,59.922703 76.139915,50.643246 76.139915,41.139389 
	C78.550224,41.139389 80.651154,41.139389 83.316391,41.139389 
	C83.316391,43.998966 83.316391,46.884098 83.316391,50.338776 
	C84.987541,49.667023 85.972305,49.251175 86.971291,48.872845 
	C93.819450,46.279331 99.587402,49.854412 99.952301,57.112892 
	C100.176331,61.569141 99.993744,66.045830 99.993744,70.812325 
	C97.719597,70.812325 95.638695,70.812325 92.786980,70.812325 
	C92.786980,67.284721 92.851181,63.541435 92.766953,59.801495 
	C92.697838,56.733219 91.879326,54.012257 88.082863,54.060764 
	C84.244133,54.109810 83.643021,56.896980 83.616951,59.951405 
	C83.586044,63.572258 83.609673,67.193581 83.609673,71.672012 
	C80.737030,71.082741 78.465477,70.616768 76.166916,69.676483 
z"/>
<path fill="#F8F8F9" opacity="1.000000" stroke="none" 
	d="
M138.231674,48.849464 
	C143.557816,50.898907 148.629028,48.348949 153.765717,49.108612 
	C153.765717,56.745453 153.765717,64.162964 153.765717,72.648811 
	C151.058762,71.756332 148.861984,70.952057 146.612534,70.341850 
	C145.982544,70.170959 145.155609,70.465027 144.490051,70.726578 
	C137.324310,73.542572 131.672180,71.447922 129.441788,65.113289 
	C126.805855,57.626858 130.287048,50.881298 138.231674,48.849464 
M146.423370,61.300793 
	C146.597397,57.949543 145.532593,54.871284 141.851715,55.170166 
	C139.885452,55.329823 136.881882,57.716427 136.593353,59.468082 
	C136.282501,61.355125 138.090408,64.625999 139.886322,65.585548 
	C142.661179,67.068138 145.267288,65.440155 146.423370,61.300793 
z"/>
<path fill="#F9F9F9" opacity="1.000000" stroke="none" 
	d="
M221.290161,55.821941 
	C224.786560,48.362114 229.221466,46.568630 236.271240,49.110790 
	C237.235474,49.458500 238.647827,48.329834 239.883728,48.213139 
	C241.689957,48.042595 243.524261,48.169285 246.053146,48.169285 
	C246.053146,51.906193 246.053146,55.657719 246.053146,59.409245 
	C246.053146,63.184879 246.053146,66.960510 246.053146,71.802650 
	C243.211777,70.900024 241.011536,70.160713 238.782089,69.523605 
	C238.278168,69.379601 237.635223,69.480606 237.119385,69.655228 
	C225.703003,73.519753 220.109573,68.814644 221.290161,55.821941 
M238.250244,61.850464 
	C239.327927,58.298908 238.433502,55.218685 234.743576,54.455952 
	C233.063248,54.108620 229.684708,55.660397 229.260788,57.027885 
	C228.620895,59.092205 229.107025,62.505032 230.529358,63.985435 
	C232.932465,66.486641 235.967514,65.608749 238.250244,61.850464 
z"/>
<path fill="#F4F4F5" opacity="1.000000" stroke="none" 
	d="
M123.750290,68.802879 
	C115.080551,75.581741 104.285225,72.571274 102.818115,63.271267 
	C102.070290,58.530804 102.950500,54.195831 107.132927,51.331833 
	C111.447578,48.377289 116.201309,48.153225 120.842545,50.539425 
	C125.365204,52.864670 126.751015,56.914871 126.379044,62.540577 
	C123.663750,62.540577 121.077187,62.540573 118.490623,62.540573 
	C115.843979,62.540573 113.197327,62.540577 109.752922,62.540577 
	C111.181282,66.510742 113.094803,67.521652 116.594963,66.317459 
	C119.382683,65.358376 122.334587,64.876526 126.599380,63.848911 
	C125.194313,66.377632 124.594803,67.456566 123.750290,68.802879 
M110.928825,56.289185 
	C111.247749,57.116337 111.496521,58.617180 111.897240,58.658905 
	C114.130806,58.891506 116.401176,58.770641 119.252350,58.770641 
	C117.386856,54.177238 114.740288,54.120220 110.928825,56.289185 
z"/>
<path fill="#F4F4F5" opacity="1.000000" stroke="none" 
	d="
M296.066040,61.099026 
	C293.278839,61.102253 290.958862,61.102253 287.926239,61.102253 
	C289.103729,64.972076 291.102142,66.064590 294.554657,64.969543 
	C297.417786,64.061432 300.323639,63.287899 303.617065,62.337421 
	C302.271973,69.161766 296.944122,72.204948 289.895142,71.000343 
	C283.530151,69.912605 279.890808,64.350121 280.880188,57.221703 
	C281.757324,50.902206 287.092834,47.227726 294.449615,47.876675 
	C301.206543,48.472710 304.772400,53.023678 304.356140,61.095798 
	C301.772034,61.095798 299.152649,61.095798 296.066040,61.099026 
M294.054565,53.567326 
	C291.168060,52.992832 289.101257,53.739101 288.314514,56.990562 
	C291.290710,56.990562 294.003998,56.990562 296.717316,56.990562 
	C297.362396,56.272610 298.007477,55.554657 298.652557,54.836700 
	C297.363922,54.502666 296.075317,54.168629 294.054565,53.567326 
z"/>
<path fill="#F5F5F6" opacity="1.000000" stroke="none" 
	d="
M200.754333,55.521446 
	C198.733994,55.006908 197.134033,54.360176 195.472305,53.992294 
	C193.974152,53.660625 192.408386,53.634315 190.872437,53.473331 
	C190.728333,54.136654 190.584229,54.799976 190.440125,55.463295 
	C192.591217,56.222309 194.701447,57.140606 196.902390,57.705391 
	C200.830643,58.713425 203.924698,60.602291 203.365921,65.110413 
	C202.819550,69.518387 199.294113,70.819519 195.371338,71.156715 
	C188.763412,71.724701 185.411072,69.866524 182.569733,63.205006 
	C187.586319,64.111649 191.890854,64.889595 196.195374,65.667549 
	C196.354355,64.971619 196.513351,64.275696 196.672333,63.579769 
	C194.348923,62.797825 192.058395,61.892509 189.694443,61.262840 
	C186.143433,60.316978 183.453217,58.601669 183.713181,54.509010 
	C183.984070,50.244358 187.094147,48.561512 190.779678,48.053684 
	C195.198441,47.444832 199.608566,47.647366 202.150375,52.150307 
	C202.549118,52.856705 201.517838,54.370312 200.754333,55.521446 
z"/>
<path fill="#EFEFF0" opacity="1.000000" stroke="none" 
	d="
M213.542877,43.184227 
	C214.286255,44.897182 214.608429,46.487720 214.982391,48.333931 
	C216.303543,48.553459 217.696381,48.784901 219.182632,49.031864 
	C219.182632,50.722687 219.182632,52.196785 219.182632,53.992073 
	C217.842331,54.323563 216.478928,54.660767 214.979675,55.031574 
	C214.979675,58.281086 214.979675,61.542747 214.979675,64.857819 
	C216.614441,65.327515 218.002228,65.726250 219.381134,66.122437 
	C219.381134,67.924805 219.381134,69.523575 219.381134,71.076469 
	C210.503983,72.634224 207.439713,70.080475 207.066071,61.607407 
	C206.953232,59.048676 208.932007,55.591995 204.661316,53.999828 
	C204.102768,53.791599 204.038818,50.818954 204.576462,49.453884 
	C205.333496,47.531765 206.866806,45.915386 208.068176,44.168274 
	C207.819290,43.799450 207.570404,43.430630 207.321518,43.061806 
	C209.254898,43.061806 211.188293,43.061806 213.542877,43.184227 
z"/>
<path fill="#FAFBFB" opacity="1.000000" stroke="none" 
	d="
M315.002563,68.677361 
	C312.937531,69.927872 310.877930,70.716583 308.057617,71.796593 
	C308.057617,63.341347 308.057617,55.960518 308.057617,48.199390 
	C310.428406,48.531235 313.761108,45.751579 315.258636,50.246330 
	C317.191223,49.330750 319.218811,48.370167 321.895752,47.101936 
	C321.895752,50.039387 321.895752,52.216202 321.895752,54.428413 
	C315.097473,55.839832 314.971558,55.997978 314.989105,63.220726 
	C314.993164,64.885681 315.001587,66.550613 315.002563,68.677361 
z"/>
<path fill="#9FEBD9" opacity="1.000000" stroke="none" 
	d="
M57.322563,60.448624 
	C58.420216,58.267334 59.336945,56.430656 60.862064,53.375069 
	C63.462280,58.448269 65.448105,62.322742 67.535339,66.395073 
	C62.126595,66.854126 57.707100,64.311554 57.322563,60.448624 
z"/>
<path fill="#9FEAD9" opacity="1.000000" stroke="none" 
	d="
M38.654335,44.314911 
	C37.551617,42.133751 36.632980,40.267906 35.714340,38.402061 
	C36.031284,37.967365 36.348225,37.532669 36.665169,37.097973 
	C40.756992,38.958424 44.848820,40.818871 49.298130,42.841858 
	C42.821281,48.413078 41.319164,48.598801 38.654335,44.314911 
z"/>
<path fill="#101222" opacity="1.000000" stroke="none" 
	d="
M174.307907,59.927277 
	C174.016739,63.858753 172.023331,66.339767 168.648239,65.396744 
	C166.767105,64.871132 164.571960,61.975304 164.385773,59.973896 
	C164.234528,58.348179 166.542114,55.503132 168.332352,54.900036 
	C171.730621,53.755215 173.838257,55.962528 174.307907,59.927277 
z"/>
<path fill="#0F1121" opacity="1.000000" stroke="none" 
	d="
M146.328934,61.713375 
	C145.267288,65.440155 142.661179,67.068138 139.886322,65.585548 
	C138.090408,64.625999 136.282501,61.355125 136.593353,59.468082 
	C136.881882,57.716427 139.885452,55.329823 141.851715,55.170166 
	C145.532593,54.871284 146.597397,57.949543 146.328934,61.713375 
z"/>
<path fill="#121525" opacity="1.000000" stroke="none" 
	d="
M238.127533,62.217449 
	C235.967514,65.608749 232.932465,66.486641 230.529358,63.985435 
	C229.107025,62.505032 228.620895,59.092205 229.260788,57.027885 
	C229.684708,55.660397 233.063248,54.108620 234.743576,54.455952 
	C238.433502,55.218685 239.327927,58.298908 238.127533,62.217449 
z"/>
<path fill="#272A38" opacity="1.000000" stroke="none" 
	d="
M111.221481,56.008598 
	C114.740288,54.120220 117.386856,54.177238 119.252350,58.770641 
	C116.401176,58.770641 114.130806,58.891506 111.897240,58.658905 
	C111.496521,58.617180 111.247749,57.116337 111.221481,56.008598 
z"/>
<path fill="#1C1F2E" opacity="1.000000" stroke="none" 
	d="
M294.420654,53.700958 
	C296.075317,54.168629 297.363922,54.502666 298.652557,54.836700 
	C298.007477,55.554657 297.362396,56.272610 296.717316,56.990562 
	C294.003998,56.990562 291.290710,56.990562 288.314514,56.990562 
	C289.101257,53.739101 291.168060,52.992832 294.420654,53.700958 
z"/>
</svg>